<svg xmlns="http://www.w3.org/2000/svg" viewBox="0 0 539 536"><defs><style>.b4793d01-6ad1-4d40-bc9b-d3dfb46bc318{fill:#222e40;}.a6fb5e5c-f5e6-4e80-a647-13fe882bd6dd{fill:none;stroke:#88baff;stroke-miterlimit:10;stroke-width:30px;}.b9cb1dd4-ff26-4779-bd3e-a4cb4fa3160b{fill:#88baff;}</style></defs><title>icon-v2-rastr</title><g id="b3780fba-34cd-4371-be5f-9a8550736f5b" data-name="Слой 2"><rect class="b4793d01-6ad1-4d40-bc9b-d3dfb46bc318" x="15" y="15" width="509" height="506" rx="90"/><rect class="a6fb5e5c-f5e6-4e80-a647-13fe882bd6dd" x="15" y="15" width="509" height="506" rx="90"/><path class="b9cb1dd4-ff26-4779-bd3e-a4cb4fa3160b" d="M111.32,287.49V157.22h28.75v143.3q0,15.44.85,22c.56,4.39,1.56,7.77,3,10.12A29.42,29.42,0,0,0,157,345.27q8.56,4.25,20.74,4.24,12.33,0,20.82-4.24a30.37,30.37,0,0,0,13.17-12.61,26.43,26.43,0,0,0,3-10.05q.85-6.51.85-21.81V157.22h28.61V287.49q0,32.43-4,46.09a47.91,47.91,0,0,1-14,22.59,61.62,61.62,0,0,1-21.38,12.46,83.38,83.38,0,0,1-27.05,4.11,82.87,82.87,0,0,1-26.9-4.11,63.06,63.06,0,0,1-21.52-12.46,48,48,0,0,1-13.88-22.73Q111.32,319.51,111.32,287.49Z" transform="translate(12 11)"/><path class="b9cb1dd4-ff26-4779-bd3e-a4cb4fa3160b" d="M408.4,164.44v29a113,113,0,0,0-26.12-12.6,85.26,85.26,0,0,0-26.41-4.25q-20.25,0-32,9.42t-11.76,25.41q0,14,7.72,21.38t28.82,12.32l15,3.4q29.73,6.94,43.33,21.81t13.59,40.5q0,30.15-18.69,46t-54.38,15.86a143.05,143.05,0,0,1-29.87-3.19A166.89,166.89,0,0,1,287.48,360V329.55a141.18,141.18,0,0,0,30.79,15.15,92.39,92.39,0,0,0,29.24,4.81q21.67,0,33.71-9.7t12-27.11q0-15.85-8.28-24.22T356.15,275.6l-15.29-3.54Q311.4,265.4,298.1,252t-13.31-36.11q0-28.32,19-45.38t50.62-17.06a127.63,127.63,0,0,1,25.63,2.76A193.2,193.2,0,0,1,408.4,164.44Z" transform="translate(12 11)"/></g></svg>